<?xml version="1.0" encoding="utf-8"?>
<!-- Generator: Adobe Illustrator 23.0.5, SVG Export Plug-In . SVG Version: 6.00 Build 0)  -->
<svg version="1.1" xmlns="http://www.w3.org/2000/svg" xmlns:xlink="http://www.w3.org/1999/xlink" x="0px" y="0px"
	 viewBox="0 0 1493.13 1608.89" style="enable-background:new 0 0 1493.13 1608.89;" xml:space="preserve">
<style type="text/css">
	.st0{fill:none;stroke:#E5232B;stroke-width:10;stroke-miterlimit:10;}
	.st1{fill:#FFFFFF;}
</style>
<g id="pole_ochronne">
	<rect class="st0" width="1493.13" height="1608.89"/>
</g>
<g id="chk">
	<g>
		<polygon class="st1" points="331.96,622.59 327.58,622.59 327.58,640.3 331.96,640.3 332.01,640.3 336.38,640.3 336.38,622.59 
			332.01,622.59 		"/>
		<rect x="346.72" y="622.59" class="st1" width="4.43" height="4.43"/>
		<rect x="321.65" y="556.15" class="st1" width="20.62" height="39.86"/>
		<rect x="317.19" y="547.29" class="st1" width="4.43" height="4.43"/>
		<rect x="321.65" y="600.44" class="st1" width="20.62" height="13.29"/>
		<rect x="342.29" y="547.29" class="st1" width="4.43" height="4.43"/>
		<rect x="326.05" y="494.14" class="st1" width="11.81" height="22.15"/>
		<rect x="345.24" y="494.14" class="st1" width="7.38" height="22.15"/>
		<rect x="311.31" y="494.14" class="st1" width="7.38" height="22.15"/>
		<polygon class="st1" points="337.86,525.14 334.17,525.14 334.17,520.71 329.74,520.71 329.74,525.14 326.05,525.14 326.05,534 
			321.62,534 321.62,538.43 326.05,538.43 337.86,538.43 342.29,538.43 342.29,534 337.86,534 		"/>
		<rect x="346.72" y="631.44" class="st1" width="4.43" height="8.86"/>
		<rect x="312.77" y="631.44" class="st1" width="4.43" height="8.86"/>
		<polygon class="st1" points="357.05,542.86 346.72,551.72 346.72,613.73 357.05,613.73 		"/>
		<polygon class="st1" points="306.86,613.73 317.19,613.73 317.19,551.72 306.86,542.86 		"/>
		<polygon class="st1" points="351.15,485.28 355.58,485.28 355.58,476.42 351.15,476.42 351.15,440.99 346.72,440.99 
			346.72,480.85 351.15,480.85 		"/>
		<polygon class="st1" points="331.96,396.7 336.38,396.7 336.38,352.4 331.96,352.4 331.96,352.4 327.53,352.4 327.53,396.7 
			331.96,396.7 		"/>
		<rect x="329.74" y="308.11" class="st1" width="4.43" height="44.29"/>
		<polygon class="st1" points="331.17,308.11 332.64,308.11 332.64,292.33 336.38,292.33 336.38,290.85 332.64,290.85 
			332.64,285.96 331.17,285.96 331.17,290.85 327.53,290.85 327.53,292.33 331.17,292.33 		"/>
		<path class="st1" d="M317.19,480.85h29.53v-4.43h-29.53v-4.43h29.53v-22.15h-29.53v-4.43h29.53v-4.43h-5.91V396.7h0v0H323.1v4.43
			h0v39.86h4.43v0h-10.34v0h-4.43v39.86L317.19,480.85L317.19,480.85z M336.38,401.13L336.38,401.13l0,39.86h0V401.13z"/>
		<rect x="308.33" y="476.42" class="st1" width="4.43" height="8.86"/>
		<rect x="306.86" y="777.61" class="st1" width="4.43" height="8.86"/>
		<rect x="316.45" y="777.61" class="st1" width="4.43" height="8.86"/>
		<rect x="325.31" y="777.61" class="st1" width="4.43" height="8.86"/>
		<rect x="334.18" y="777.61" class="st1" width="4.43" height="8.86"/>
		<rect x="343.03" y="777.61" class="st1" width="4.43" height="8.86"/>
		<rect x="352.63" y="777.61" class="st1" width="4.43" height="8.86"/>
		<rect x="306.86" y="742.17" class="st1" width="20.66" height="4.43"/>
		<rect x="336.4" y="742.17" class="st1" width="20.66" height="4.43"/>
		<rect x="306.86" y="671.31" class="st1" width="20.66" height="4.43"/>
		<rect x="336.4" y="671.31" class="st1" width="20.66" height="4.43"/>
		<path class="st1" d="M302.43,529.57v-39.86h59.06v-4.43h-59.06H298v39.86h-10.34v4.43h0v84.16v4.43h0v39.86v4.43h4.43H298h4.43h0
			v-39.86h10.34v-4.43h-10.34v-4.43V534h19.19v-4.43H302.43z M298,658.02h-5.91v-39.86h0H298V658.02z M298,534v79.73h-5.91v-84.16
			H298V534z"/>
		<rect x="321.62" y="542.86" class="st1" width="20.67" height="4.43"/>
		<rect x="336.38" y="618.16" class="st1" width="10.34" height="4.43"/>
		<rect x="312.77" y="622.59" class="st1" width="4.43" height="4.43"/>
		<rect x="317.2" y="618.16" class="st1" width="10.34" height="4.43"/>
		<rect x="306.86" y="644.73" class="st1" width="10.34" height="13.29"/>
		<rect x="346.72" y="644.73" class="st1" width="10.34" height="13.29"/>
		<rect x="306.86" y="888.11" class="st1" width="4.43" height="9.09"/>
		<rect x="306.86" y="865.84" class="st1" width="4.43" height="9.09"/>
		<rect x="352.63" y="887.6" class="st1" width="4.43" height="9.09"/>
		<rect x="352.63" y="865.96" class="st1" width="4.43" height="9.09"/>
		<rect x="344.51" y="865.96" class="st1" width="4.43" height="9.09"/>
		<rect x="314.98" y="865.96" class="st1" width="4.43" height="9.09"/>
		<rect x="306.87" y="759.89" class="st1" width="4.43" height="4.43"/>
		<rect x="316.46" y="759.89" class="st1" width="4.43" height="4.43"/>
		<rect x="325.32" y="759.89" class="st1" width="4.43" height="4.43"/>
		<rect x="334.19" y="759.89" class="st1" width="4.43" height="4.43"/>
		<rect x="343.04" y="759.89" class="st1" width="4.43" height="4.43"/>
		<rect x="352.64" y="759.89" class="st1" width="4.43" height="4.43"/>
		<polygon class="st1" points="317.19,914.91 317.19,919.34 346.72,919.34 346.72,914.91 335.65,906.06 328.26,906.06 		"/>
		<path class="st1" d="M357.05,830.7v-0.06v-7.66c-1.06-13.1-12.16-23.27-25.23-23.2c-12.98,0.07-23.91,10.2-24.96,23.2
			c0,2.55,0,5.11,0,7.66v0.06v30.83h50.2V830.7z"/>
		<rect x="327.53" y="865.96" class="st1" width="8.86" height="9.09"/>
		<rect x="336.39" y="680.17" class="st1" width="20.66" height="57.58"/>
		<rect x="306.86" y="680.17" class="st1" width="20.66" height="57.58"/>
		
			<ellipse transform="matrix(0.7071 -0.7071 0.7071 0.7071 -363.3647 425.5114)" class="st1" cx="331.96" cy="651.38" rx="6.64" ry="6.64"/>
		<polygon class="st1" points="494.34,538.43 506.16,538.43 510.59,538.43 510.59,534 506.16,534 506.16,525.14 502.46,525.14 
			502.46,520.71 498.04,520.71 498.04,525.14 494.34,525.14 494.34,534 489.92,534 489.92,538.43 		"/>
		<rect x="510.59" y="547.29" class="st1" width="4.43" height="4.43"/>
		<rect x="494.34" y="494.14" class="st1" width="11.81" height="22.15"/>
		<rect x="513.54" y="494.14" class="st1" width="7.38" height="22.15"/>
		<rect x="479.6" y="494.14" class="st1" width="7.38" height="22.15"/>
		<polygon class="st1" points="519.44,485.28 523.87,485.28 523.87,476.42 519.45,476.42 519.45,440.99 515.02,440.99 
			515.02,480.85 519.44,480.85 		"/>
		<polygon class="st1" points="500.25,396.7 504.68,396.7 504.68,352.4 500.25,352.4 500.25,352.4 495.82,352.4 495.82,396.7 
			500.25,396.7 		"/>
		<rect x="498.04" y="308.11" class="st1" width="4.43" height="44.29"/>
		<polygon class="st1" points="499.46,308.11 500.94,308.11 500.94,292.33 504.68,292.33 504.68,290.85 500.94,290.85 
			500.94,285.96 499.46,285.96 499.46,290.85 495.82,290.85 495.82,292.33 499.46,292.33 		"/>
		<path class="st1" d="M485.49,480.85h29.53v-4.43h-29.53v-4.43h29.53v-22.15h-29.53v-4.43h29.53v-4.43h-5.91V396.7h0v0h-17.72v4.43
			h0v39.86h4.43v0h-10.34v0h-4.43v39.86L485.49,480.85L485.49,480.85z M504.68,401.13L504.68,401.13l0,39.86h0V401.13z"/>
		<rect x="476.63" y="476.42" class="st1" width="4.43" height="8.86"/>
		<rect x="489.92" y="542.86" class="st1" width="20.67" height="4.43"/>
		<rect x="391.02" y="742.17" class="st1" width="10.26" height="4.43"/>
		<rect x="430.87" y="742.17" class="st1" width="10.26" height="4.43"/>
		<rect x="405.78" y="742.17" class="st1" width="20.67" height="4.43"/>
		<rect x="391" y="759.89" class="st1" width="4.43" height="4.43"/>
		<rect x="400.6" y="759.89" class="st1" width="4.43" height="4.43"/>
		<rect x="409.46" y="759.89" class="st1" width="4.43" height="4.43"/>
		<rect x="418.32" y="759.89" class="st1" width="4.43" height="4.43"/>
		<rect x="427.17" y="759.89" class="st1" width="4.43" height="4.43"/>
		<rect x="436.77" y="759.89" class="st1" width="4.43" height="4.43"/>
		<rect x="391.01" y="888.1" class="st1" width="4.43" height="9.09"/>
		<rect x="391.01" y="865.84" class="st1" width="4.43" height="9.09"/>
		<rect x="436.78" y="887.6" class="st1" width="4.43" height="9.09"/>
		<rect x="436.78" y="865.96" class="st1" width="4.43" height="9.09"/>
		<rect x="428.66" y="865.96" class="st1" width="4.43" height="9.09"/>
		<rect x="411.68" y="865.96" class="st1" width="8.86" height="9.09"/>
		<rect x="399.13" y="865.96" class="st1" width="4.43" height="9.09"/>
		<polygon class="st1" points="401.35,914.91 401.35,919.34 430.88,919.34 430.88,914.91 419.8,906.05 412.42,906.05 		"/>
		<path class="st1" d="M391.01,861.53h50.2v-52.95h0v-7.72c-1.06-13.1-12.16-23.27-25.23-23.2c-12.98,0.07-23.91,10.2-24.96,23.2
			c0,2.57,0,5.15,0,7.72h0V861.53z"/>
		<rect x="430.85" y="671.31" class="st1" width="10.33" height="66.44"/>
		<rect x="405.76" y="671.31" class="st1" width="20.66" height="66.44"/>
		<rect x="390.99" y="671.31" class="st1" width="10.33" height="66.44"/>
		<rect x="427.92" y="635.87" class="st1" width="4.43" height="4.43"/>
		<path class="st1" d="M460.39,968.06h5.91h4.43h14.76h29.53h14.76h4.43h5.91h0h4.43h0l168.31,0l0.01-283.46
			c0-46.48-37.68-84.16-84.16-84.16h-84.16l-0.01,0v-70.87h0h0v-4.43h-10.33v-39.86h-4.43v39.86h0v4.43h-19.19V534h19.19v53.89
			l-4.43-3.77v-41.26l-10.33,8.86v23.63l-4.46-3.79v-15.41h-18.13l-5.21-4.43h2.69v-4.43h-4.43v2.95l-14.76-12.55V534h19.19v-4.43
			h-19.19v-39.86h59.06v-4.43h-59.06h-4.43v39.86h-10.34v4.43h0l0,15.04v69.12v4.43h0v37.36l-19.18-10.79h-4.43v-4.43h-4.43h-4.43
			v-13.29h-6.69v-15.78h3.74v-1.48h-3.74v-4.89h-1.48v4.89h-3.64v1.48h3.64v15.78h-6.59v13.29h-4.43v-4.43h-4.43v4.43v0v4.43h-4.43
			l-19.2,10.8v-37.37h0v-4.43v-84.16h0v-4.43h-10.33v-39.86h-4.43v39.86h0v4.43h-19.19V534h19.19v79.73v4.43h0h-10.33v4.43h10.33
			v35.43v4.43h4.43h5.91h0v0h0v84.15h-5.89h-0.01v-79.73v-4.43h-4.43h-59.06H298v4.43v79.73h-5.89v0h-0.01v-84.16h-4.43v88.58h0.01
			v13.29h-0.01v4.43h0v22.15h0v0v84.16v4.43v35.43v4.43v44.29v4.43h4.43H298h4.43h14.76h29.53h14.76h4.43h5.91h4.43v0h0h5.91h4.43
			h14.76h29.53h14.76h4.43h5.89v0H460.39z M534.21,534v-4.43h5.91v67.1l-5.91-5.02V534z M466.29,529.57v4.36l-5.12-4.36H466.29z
			 M371.82,658.02h-5.91v-39.86h0h5.91V658.02z M371.82,613.73h-5.91V534v-4.43h5.91V613.73z M302.43,666.88h59.06v84.16h-59.05
			v-4.43h-0.01V666.88z M292.09,786.47v-17.72H298v4.43v13.29H292.09z M298,963.64h-5.91v-44.29H298V963.64z M298,883.91v31h-5.91
			v-35.43H298V883.91z M298,795.33v79.73h-5.91V790.9H298V795.33z M298.01,764.32h-5.91v-13.29H298v4.43h0.01V764.32z
			 M361.48,963.64h-14.76c0-11.81,0-23.62,0-35.43c-1.97-1.3-7.28-4.43-14.76-4.43c-7.48,0-12.79,3.13-14.77,4.43v35.43h-14.76
			v-44.29l0.01-0.01h0.05v-0.05l29.47-29.47l29.53,29.53V963.64z M302.43,913.08v-29.18h23.62l2.78,2.78L302.43,913.08z
			 M361.48,913.08l-26.4-26.4l2.78-2.78h23.62V913.08z M361.48,875.05v4.43H342.3h-6.26h-8.15h-6.26h-19.19v-4.43v-79.73h59.06
			V875.05z M361.48,790.9h-59.06v-4.43h0v-13.29h59.06L361.48,790.9L361.48,790.9L361.48,790.9z M361.49,764.32h-0.01v4.43h0v0
			h-59.06v0h0.01v-13.29h59.06V764.32z M365.91,786.47v-13.29v-4.43h5.91v17.72H365.91z M371.82,963.64h-5.91v-44.29h5.91V963.64z
			 M371.82,914.91h-5.91v-31v-4.43h5.91V914.91z M371.82,875.05h-5.91v-79.73v-4.43h5.91V875.05z M371.82,764.32L371.82,764.32
			L371.82,764.32l-5.9,0v-13.29h5.89v0h0v0.01h0V764.32z M455.96,879.48v35.43h-5.89v-31v-4.43h0v0L455.96,879.48L455.96,879.48z
			 M450.06,662.45h5.9v0h0v0h0v84.15h-5.9V662.45z M441.2,658.02h1.19l0,0L441.2,658.02L441.2,658.02z M399.88,662.45h4.43v0h4.43v0
			h14.75v0h4.43h4.43v0h4.43v0h4.43v0h4.42v0L399.88,662.45L399.88,662.45z M391.02,662.45h4.43v0L391.02,662.45L391.02,662.45z
			 M386.57,666.88h59.06v79.73h0h-0.01v4.43h0.01v0h-59.04v-4.42h-0.01V666.88z M376.25,746.6v-84.15h5.88v4.43h0.02v79.73h0v0.01
			h-5.88v-0.01L376.25,746.6L376.25,746.6L376.25,746.6z M382.14,755.46v8.86h-5.88v-13.28h5.87v4.42H382.14z M382.15,963.63h-5.91
			v-44.29h5.91V963.63z M382.15,883.91v31h-5.91v-35.43h0h5.91V883.91z M382.15,875.05h-5.91v-106.3h0.01v0h5.89v4.43h0V875.05z
			 M386.57,764.32v-8.86h59.06v13.29h0.01v0h-59.06h0v-4.43H386.57z M410.2,883.91l2.78,2.78l-26.4,26.4v-29.18H410.2z
			 M445.64,963.63h-14.76c0-11.81,0-23.62,0-35.43c-1.97-1.3-7.28-4.43-14.76-4.43c-7.48,0-12.79,3.13-14.77,4.43v35.43h-14.76
			v-44.29l0.01-0.01h0.05v-0.05l29.47-29.47l29.53,29.53V963.63z M445.64,913.08l-26.4-26.4l2.78-2.78h23.62V913.08z M445.64,875.05
			L445.64,875.05l0,4.43h-19.19h-6.26h-8.15h-6.26h-19.19v-106.3h59.06V875.05z M450.06,751.03L450.06,751.03L450.06,751.03l5.9,0v0
			h0l0,13.29h-5.9V751.03z M450.07,768.75L450.07,768.75l5.89,0v0h0v22.15h0v0v84.15h-5.89L450.07,768.75L450.07,768.75z
			 M450.07,963.63v-44.29h5.89v0v44.29H450.07z"/>
		<path class="st1" d="M496.38,1078.34c6.33,0,11.26,3.02,15.38,8.24l14.98-13.37c-6.94-9.05-17.79-14.08-31.57-14.08
			c-22.62,0-39.21,15.18-39.21,36.8c0,21.62,16.59,36.8,39.21,36.8c13.78,0,24.64-5.03,31.57-14.07l-14.98-13.37
			c-4.12,5.23-9.05,8.24-15.38,8.24c-9.85,0-16.49-6.84-16.49-17.59C479.89,1085.18,486.53,1078.34,496.38,1078.34z"/>
		<polygon class="st1" points="533.57,1060.75 533.57,1131.13 557.3,1131.13 557.3,1105.19 579.22,1105.19 579.22,1131.13 
			602.95,1131.13 602.95,1060.75 579.22,1060.75 579.22,1085.68 557.3,1085.68 557.3,1060.75 		"/>
		<path class="st1" d="M611.59,1095.94c0,21.31,16.79,36.8,39.71,36.8c22.92,0,39.71-15.48,39.71-36.8s-16.79-36.8-39.71-36.8
			C628.38,1059.14,611.59,1074.62,611.59,1095.94z M651.3,1078.34c8.75,0,15.79,6.64,15.79,17.59c0,10.96-7.04,17.59-15.79,17.59
			s-15.79-6.63-15.79-17.59C635.52,1084.98,642.55,1078.34,651.3,1078.34z"/>
		<polygon class="st1" points="675.63,1038.93 654.02,1038.93 640.75,1055.02 655.83,1055.02 		"/>
		<path class="st1" d="M699.65,1131.13h23.73v-17.7h6.44l11.96,17.7h25.34l-14.78-21.72c8.45-4.32,13.27-11.96,13.27-22.12
			c0-16.29-12.47-26.54-32.07-26.54h-33.88V1131.13z M723.38,1079.05h8.65c6.53,0,9.65,3.12,9.65,8.24s-3.12,8.24-9.65,8.24h-8.65
			V1079.05z"/>
		<polygon class="st1" points="500.1,1182.2 528.25,1151.23 502.41,1151.23 479.29,1176.77 479.29,1151.23 455.96,1151.23 
			455.96,1221.61 479.29,1221.61 479.29,1204.21 484.62,1198.28 502.21,1221.61 529.66,1221.61 		"/>
		<path class="st1" d="M590.89,1151.23h-23.33l-30.77,70.38h24.13l4.73-12.27h26.74l4.72,12.27h24.53L590.89,1151.23z
			 M572.19,1192.25l6.84-17.69l6.84,17.69H572.19z"/>
		<polygon class="st1" points="683.18,1151.23 618.23,1151.23 618.23,1169.63 638.84,1169.63 638.84,1221.61 662.57,1221.61 
			662.57,1169.63 683.18,1169.63 		"/>
		<polygon class="st1" points="747.82,1203.71 712.63,1203.71 712.63,1194.46 742.39,1194.46 742.39,1177.37 712.63,1177.37 
			712.63,1169.13 746.52,1169.13 746.52,1151.23 689.31,1151.23 689.31,1221.61 747.82,1221.61 		"/>
		<path class="st1" d="M756.97,1221.61h34.69c23.53,0,39.71-13.37,39.71-35.19c0-21.82-16.19-35.19-39.71-35.19h-34.69V1221.61z
			 M780.69,1169.73h9.95c9.95,0,16.79,5.93,16.79,16.69c0,10.76-6.84,16.69-16.79,16.69h-9.95V1169.73z"/>
		<path class="st1" d="M907.47,1221.61h23.92l4.72-12.27h26.74l4.73,12.27h24.53l-30.77-70.38h-23.32l-30.69,70.19l-14.65-21.53
			c8.45-4.32,13.27-11.96,13.27-22.12c0-16.29-12.47-26.54-32.07-26.54h-33.88v70.38h23.73v-17.7h6.44l11.96,17.7h25.13H907.47z
			 M949.49,1174.55l6.84,17.69h-13.67L949.49,1174.55z M872.38,1186.02h-8.65v-16.49h8.65c6.53,0,9.65,3.12,9.65,8.24
			C882.03,1182.9,878.92,1186.02,872.38,1186.02z"/>
		<polygon class="st1" points="1051.44,1203.21 1019.66,1203.21 1019.66,1151.23 995.94,1151.23 995.94,1221.61 1051.44,1221.61 		
			"/>
		<polygon class="st1" points="1104.21,1183.2 1077.47,1151.23 1057.97,1151.23 1057.97,1221.61 1081.09,1221.61 1081.09,1189.64 
			1107.83,1221.61 1127.34,1221.61 1127.34,1151.23 1104.21,1151.23 		"/>
		<polygon class="st1" points="1184.24,1151.23 1169.76,1175.56 1155.38,1151.23 1130.35,1151.23 1156.89,1195.77 1156.89,1221.61 
			1180.62,1221.61 1180.62,1196.07 1207.16,1151.23 		"/>
		<path class="st1" d="M460.08,1237.2c0-1.11-0.9-2.01-2.06-2.01c-1.16,0-2.06,0.96-2.06,2.06s0.9,2.01,2.06,2.01
			C459.18,1239.26,460.08,1238.36,460.08,1237.2z"/>
		<rect x="456.77" y="1245.64" class="st1" width="2.51" height="26.23"/>
		<path class="st1" d="M502.55,1245.44c-5.08,0-8.89,2.51-10.61,6.33c-1.41-4.17-4.87-6.33-9.6-6.33c-4.77,0-8.34,2.16-10.05,5.83
			v-5.63h-2.41v26.23h2.51v-13.97c0-6.23,3.67-10.2,9.6-10.2c5.13,0,8.19,3.12,8.19,9.05v15.13h2.51v-13.97
			c0-6.23,3.67-10.2,9.6-10.2c5.13,0,8.19,3.12,8.19,9.05v15.13h2.51v-15.33C513.01,1249.21,508.89,1245.44,502.55,1245.44z"/>
		<path class="st1" d="M520.96,1269.92c0,1.21,0.95,2.16,2.11,2.16c1.15,0,2.11-0.95,2.11-2.16c0-1.21-0.95-2.11-2.11-2.11
			C521.91,1267.81,520.96,1268.71,520.96,1269.92z"/>
		<polygon class="st1" points="569.96,1271.88 557.55,1256.25 568.86,1245.64 565.64,1245.64 548.86,1260.97 548.86,1234.59 
			546.34,1234.59 546.34,1271.88 548.86,1271.88 548.86,1264.09 555.69,1257.85 566.85,1271.88 		"/>
		<path class="st1" d="M581.83,1269.86c-3.87,0-7.44-1.46-9.45-3.17l-1.16,2.01c2.06,1.91,6.18,3.37,10.51,3.37
			c6.68,0,10.35-2.91,10.35-7.19c0-10-17.39-4.42-17.39-12.31c0-2.82,2.26-4.92,7.39-4.92c2.82,0,5.68,0.75,7.89,2.36l1.16-2.01
			c-2.06-1.56-5.68-2.56-9-2.56c-6.63,0-9.95,3.22-9.95,7.19c0,10.3,17.39,4.68,17.39,12.31
			C589.57,1267.91,587.36,1269.86,581.83,1269.86z"/>
		<path class="st1" d="M596.71,1269.92c0,1.21,0.95,2.16,2.11,2.16c1.16,0,2.11-0.95,2.11-2.16c0-1.21-0.96-2.11-2.11-2.11
			C597.67,1267.81,596.71,1268.71,596.71,1269.92z"/>
		<path class="st1" d="M649.18,1271.88h2.76l-16.18-35.18h-2.56l-16.18,35.18h2.76l4.47-9.9h20.4L649.18,1271.88z M625.26,1259.81
			l9.2-20.3l9.25,20.3H625.26z"/>
		<rect x="657.53" y="1234.59" class="st1" width="2.51" height="37.29"/>
		<path class="st1" d="M678.54,1236.55c1.56,0,3.02,0.5,4.07,1.46l1-1.91c-1.25-1.16-3.27-1.71-5.18-1.71
			c-4.67,0-7.28,2.86-7.28,7.24v4.02h-4.83v2.16h4.83v24.07h2.51v-24.07h8.34v-2.16h-8.39v-3.82
			C673.62,1238.36,675.28,1236.55,678.54,1236.55z"/>
		<path class="st1" d="M693.67,1258.21c0-6.48,3.47-10.35,9.3-10.35c0.2,0,0.4,0.05,0.6,0.05v-2.46c-4.92,0-8.39,2.11-10,5.93v-5.73
			h-2.41v26.23h2.51V1258.21z"/>
		<path class="st1" d="M730.82,1267.81l-1.46-1.66c-2.01,2.46-5.08,3.67-8.39,3.67c-6.28,0-10.86-4.22-11.11-10.45h22.57
			c0-0.25,0.05-0.5,0.05-0.7c0-7.79-5.33-13.22-12.51-13.22c-7.19,0-12.56,5.53-12.56,13.32c0,7.79,5.58,13.32,13.52,13.32
			C724.89,1272.08,728.5,1270.62,730.82,1267.81z M719.96,1247.65c5.58,0,9.7,4.07,10.05,9.75h-20.1
			C710.31,1251.67,714.38,1247.65,719.96,1247.65z"/>
		<path class="st1" d="M761.08,1251.72c-2.11-3.97-6.03-6.28-10.7-6.28c-7.39,0-12.97,5.43-12.97,13.32
			c0,7.84,5.58,13.32,12.97,13.32c4.72,0,8.69-2.31,10.75-6.38v6.18h2.46v-37.29h-2.51V1251.72z M750.52,1269.81
			c-6.03,0-10.55-4.47-10.55-11.05c0-6.58,4.52-11.06,10.55-11.06c6.03,0,10.55,4.47,10.55,11.06
			C761.08,1265.34,756.56,1269.81,750.52,1269.81z"/>
		<path class="st1" d="M783.05,1245.44c-4.07,0-7.89,1.41-10.5,3.72l1.26,1.81c2.16-1.96,5.43-3.32,9.04-3.32
			c5.13,0,7.79,2.61,7.79,7.49v2.11h-9c-7.29,0-9.8,3.37-9.8,7.34c0,4.47,3.57,7.49,9.45,7.49c4.57,0,7.79-1.86,9.45-4.87v4.67h2.41
			v-16.64C793.15,1248.76,789.53,1245.44,783.05,1245.44z M790.64,1264.14c-1.51,3.77-4.58,5.88-9,5.88c-4.62,0-7.29-2.11-7.29-5.53
			c0-3.01,1.91-5.28,7.34-5.28h8.95V1264.14z"/>
		<polygon class="st1" points="843.31,1252.88 819.79,1252.88 819.79,1236.7 817.23,1236.7 817.23,1271.88 819.79,1271.88 
			819.79,1255.14 843.31,1255.14 843.31,1271.88 845.87,1271.88 845.87,1236.7 843.31,1236.7 		"/>
		<path class="st1" d="M867.59,1245.44c-7.54,0-13.12,5.53-13.12,13.32c0,7.79,5.58,13.32,13.12,13.32
			c7.54,0,13.12-5.53,13.12-13.32C880.71,1250.97,875.13,1245.44,867.59,1245.44z M867.59,1269.81c-6.03,0-10.55-4.47-10.55-11.05
			c0-6.58,4.52-11.06,10.55-11.06c6.03,0,10.55,4.47,10.55,11.06C878.15,1265.34,873.62,1269.81,867.59,1269.81z"/>
		<path class="st1" d="M896.4,1236.55c1.56,0,3.02,0.5,4.07,1.46l1.01-1.91c-1.25-1.16-3.27-1.71-5.18-1.71
			c-4.67,0-7.29,2.86-7.29,7.24v4.02h-4.82v2.16h4.82v24.07h2.51v-24.07h8.34v-2.16h-8.39v-3.82
			C891.47,1238.36,893.13,1236.55,896.4,1236.55z"/>
		<path class="st1" d="M905.5,1241.62v4.02h-4.82v2.16h4.82v24.07h2.51v-24.07h8.34v-2.16h-8.39v-3.82c0-3.47,1.66-5.28,4.92-5.28
			c1.56,0,3.02,0.5,4.07,1.46l1.01-1.91c-1.26-1.16-3.27-1.71-5.18-1.71C908.11,1234.39,905.5,1237.25,905.5,1241.62z"/>
		<path class="st1" d="M958.17,1245.44c-5.07,0-8.9,2.51-10.6,6.33c-1.41-4.17-4.87-6.33-9.6-6.33c-4.78,0-8.34,2.16-10.05,5.83
			v-5.63h-2.41v26.23h2.51v-13.97c0-6.23,3.67-10.2,9.6-10.2c5.13,0,8.19,3.12,8.19,9.05v15.13h2.51v-13.97
			c0-6.23,3.67-10.2,9.6-10.2c5.13,0,8.19,3.12,8.19,9.05v15.13h2.51v-15.33C968.62,1249.21,964.5,1245.44,958.17,1245.44z"/>
		<path class="st1" d="M987.83,1245.44c-4.07,0-7.89,1.41-10.51,3.72l1.26,1.81c2.16-1.96,5.43-3.32,9.05-3.32
			c5.13,0,7.79,2.61,7.79,7.49v2.11h-9c-7.29,0-9.8,3.37-9.8,7.34c0,4.47,3.57,7.49,9.45,7.49c4.57,0,7.79-1.86,9.45-4.87v4.67h2.41
			v-16.64C997.93,1248.76,994.31,1245.44,987.83,1245.44z M995.42,1264.14c-1.51,3.77-4.57,5.88-9,5.88c-4.62,0-7.29-2.11-7.29-5.53
			c0-3.01,1.91-5.28,7.34-5.28h8.95V1264.14z"/>
		<path class="st1" d="M1021.11,1245.44c-4.98,0-8.64,2.21-10.4,5.88v-5.68h-2.41v26.23h2.51v-13.97c0-6.23,3.77-10.2,9.95-10.2
			c5.33,0,8.49,3.12,8.49,9.05v15.13h2.51v-15.33C1031.76,1249.21,1027.49,1245.44,1021.11,1245.44z"/>
		<path class="st1" d="M1050.97,1245.44c-4.07,0-7.89,1.41-10.5,3.72l1.25,1.81c2.16-1.96,5.43-3.32,9.05-3.32
			c5.12,0,7.79,2.61,7.79,7.49v2.11h-9c-7.29,0-9.8,3.37-9.8,7.34c0,4.47,3.57,7.49,9.45,7.49c4.57,0,7.79-1.86,9.45-4.87v4.67h2.41
			v-16.64C1061.07,1248.76,1057.45,1245.44,1050.97,1245.44z M1058.56,1264.14c-1.51,3.77-4.57,5.88-9,5.88
			c-4.62,0-7.29-2.11-7.29-5.53c0-3.01,1.91-5.28,7.34-5.28h8.94V1264.14z"/>
		<polygon class="st1" points="487.12,1319.28 478.23,1295.91 476.07,1295.91 467.12,1319.33 458.38,1295.91 455.96,1295.91 
			465.91,1322.14 468.23,1322.14 477.12,1299.38 485.97,1322.14 488.33,1322.14 498.28,1295.91 495.97,1295.91 		"/>
		<path class="st1" d="M517.79,1296.01c0-3.87,3.06-7.04,9.9-7.04c3.17,0,6.73,0.95,9.65,2.97l0.95-2.06
			c-2.71-1.96-6.74-3.17-10.6-3.17c-8.65,0-12.46,4.37-12.46,9.35c0,12.97,21.96,6.63,21.96,17.19c0,3.82-3.11,6.88-10.15,6.88
			c-4.72,0-9.2-1.91-11.61-4.42l-1.15,1.91c2.56,2.82,7.59,4.78,12.81,4.78c8.69,0,12.67-4.32,12.67-9.3
			C539.75,1300.33,517.79,1306.56,517.79,1296.01z"/>
		<path class="st1" d="M548.91,1285.46c-1.16,0-2.06,0.96-2.06,2.06c0,1.11,0.91,2.01,2.06,2.01c1.15,0,2.06-0.9,2.06-2.06
			C550.97,1286.36,550.06,1285.46,548.91,1285.46z"/>
		<rect x="547.65" y="1295.91" class="st1" width="2.51" height="26.23"/>
		<path class="st1" d="M570.47,1295.71c-7.19,0-12.56,5.53-12.56,13.32c0,7.79,5.58,13.32,13.52,13.32c3.97,0,7.59-1.46,9.9-4.27
			l-1.46-1.66c-2.01,2.46-5.07,3.67-8.39,3.67c-6.28,0-10.85-4.22-11.11-10.45h22.57c0-0.25,0.05-0.5,0.05-0.7
			C582.98,1301.14,577.65,1295.71,570.47,1295.71z M560.42,1307.67c0.4-5.73,4.47-9.75,10.05-9.75c5.58,0,9.7,4.07,10.05,9.75
			H560.42z"/>
		<path class="st1" d="M611.58,1301.99c-2.11-3.97-6.03-6.28-10.71-6.28c-7.39,0-12.97,5.43-12.97,13.32
			c0,7.84,5.58,13.32,12.97,13.32c4.72,0,8.69-2.31,10.76-6.38v6.18h2.46v-37.29h-2.51V1301.99z M601.03,1320.08
			c-6.03,0-10.55-4.47-10.55-11.05s4.52-11.06,10.55-11.06s10.55,4.47,10.55,11.06S607.06,1320.08,601.03,1320.08z"/>
		<rect x="624.71" y="1284.85" class="st1" width="2.51" height="37.29"/>
		<path class="st1" d="M648.23,1297.97c3.27,0,6.18,1.26,8.09,3.92l1.86-1.36c-2.16-3.22-5.78-4.82-9.95-4.82
			c-7.69,0-13.27,5.48-13.27,13.32c0,7.79,5.58,13.32,13.27,13.32c4.17,0,7.79-1.66,9.95-4.82l-1.86-1.36
			c-1.91,2.66-4.83,3.92-8.09,3.92c-6.18,0-10.7-4.42-10.7-11.05C637.53,1302.39,642.05,1297.97,648.23,1297.97z"/>
		<path class="st1" d="M674.57,1295.71c-4.07,0-7.89,1.41-10.5,3.72l1.26,1.81c2.16-1.96,5.43-3.32,9.04-3.32
			c5.13,0,7.79,2.61,7.79,7.49v2.11h-9c-7.29,0-9.8,3.37-9.8,7.34c0,4.47,3.57,7.49,9.45,7.49c4.57,0,7.79-1.86,9.45-4.87v4.67h2.41
			v-16.64C684.67,1299.03,681.05,1295.71,674.57,1295.71z M682.16,1314.4c-1.51,3.77-4.58,5.88-9,5.88c-4.62,0-7.29-2.11-7.29-5.53
			c0-3.01,1.91-5.28,7.34-5.28h8.95V1314.4z"/>
		<path class="st1" d="M705.48,1297.97c3.27,0,6.18,1.26,8.09,3.92l1.86-1.36c-2.16-3.22-5.78-4.82-9.95-4.82
			c-7.69,0-13.27,5.48-13.27,13.32c0,7.79,5.58,13.32,13.27,13.32c4.17,0,7.79-1.66,9.95-4.82l-1.86-1.36
			c-1.91,2.66-4.82,3.92-8.09,3.92c-6.18,0-10.7-4.42-10.7-11.05C694.78,1302.39,699.3,1297.97,705.48,1297.97z"/>
		<path class="st1" d="M735.34,1295.71c-4.88,0-8.49,2.11-10.3,5.68v-16.54h-2.51v37.29h2.51v-13.97c0-6.23,3.77-10.2,9.95-10.2
			c5.33,0,8.49,3.12,8.49,9.05v15.13H746v-15.33C746,1299.48,741.72,1295.71,735.34,1295.71z"/>
	</g>
</g>
</svg>
