<?xml version="1.0" encoding="utf-8"?>
<!-- Generator: Adobe Illustrator 23.0.5, SVG Export Plug-In . SVG Version: 6.00 Build 0)  -->
<svg version="1.1" xmlns="http://www.w3.org/2000/svg" xmlns:xlink="http://www.w3.org/1999/xlink" x="0px" y="0px"
	 viewBox="0 0 1323.13 855.39" style="enable-background:new 0 0 1323.13 855.39;" xml:space="preserve">
<style type="text/css">
	.st0{display:none;}
	.st1{display:inline;fill:none;stroke:#E52421;stroke-width:10;stroke-miterlimit:10;}
	.st2{fill:#FFFFFF;}
</style>
<g id="pole_ochronne" class="st0">
	<rect class="st1" width="1323.13" height="855.39"/>
</g>
<g id="chk">
	<g>
		<path class="st2" d="M325.17,379.77c13.78,0,24.64-5.03,31.57-14.07l-14.98-13.37c-4.12,5.23-9.05,8.24-15.38,8.24
			c-9.85,0-16.49-6.84-16.49-17.59c0-10.76,6.63-17.59,16.49-17.59c6.33,0,11.26,3.02,15.38,8.24l14.98-13.37
			c-6.94-9.05-17.79-14.08-31.57-14.08c-22.62,0-39.21,15.18-39.21,36.8C285.96,364.59,302.55,379.77,325.17,379.77z"/>
		<polygon class="st2" points="387.3,352.22 409.22,352.22 409.22,378.16 432.95,378.16 432.95,307.78 409.22,307.78 409.22,332.72 
			387.3,332.72 387.3,307.78 363.58,307.78 363.58,378.16 387.3,378.16 		"/>
		<path class="st2" d="M481.3,379.77c22.92,0,39.71-15.48,39.71-36.8c0-21.31-16.79-36.8-39.71-36.8
			c-22.92,0-39.71,15.48-39.71,36.8C441.59,364.29,458.38,379.77,481.3,379.77z M481.3,325.38c8.75,0,15.79,6.64,15.79,17.59
			c0,10.96-7.04,17.59-15.79,17.59c-8.75,0-15.79-6.63-15.79-17.59C465.52,332.01,472.56,325.38,481.3,325.38z"/>
		<polygon class="st2" points="505.63,285.96 484.02,285.96 470.75,302.05 485.83,302.05 		"/>
		<path class="st2" d="M553.38,360.47h6.44l11.96,17.7h25.34l-14.78-21.72c8.45-4.32,13.27-11.96,13.27-22.12
			c0-16.29-12.47-26.54-32.07-26.54h-33.88v70.38h23.73V360.47z M553.38,326.08h8.65c6.53,0,9.65,3.12,9.65,8.24
			s-3.12,8.24-9.65,8.24h-8.65V326.08z"/>
		<polygon class="st2" points="309.29,451.25 314.62,445.32 332.21,468.64 359.66,468.64 330.1,429.23 358.25,398.26 332.42,398.26 
			309.29,423.8 309.29,398.26 285.96,398.26 285.96,468.64 309.29,468.64 		"/>
		<path class="st2" d="M420.89,398.26h-23.33l-30.77,70.38h24.13l4.73-12.27h26.74l4.72,12.27h24.53L420.89,398.26z M402.19,439.28
			l6.84-17.69l6.84,17.69H402.19z"/>
		<polygon class="st2" points="513.18,398.26 448.23,398.26 448.23,416.66 468.84,416.66 468.84,468.64 492.57,468.64 
			492.57,416.66 513.18,416.66 		"/>
		<polygon class="st2" points="577.82,450.75 542.63,450.75 542.63,441.5 572.39,441.5 572.39,424.4 542.63,424.4 542.63,416.16 
			576.52,416.16 576.52,398.26 519.31,398.26 519.31,468.64 577.82,468.64 		"/>
		<path class="st2" d="M586.97,468.64h34.69c23.53,0,39.71-13.37,39.71-35.19s-16.19-35.19-39.71-35.19h-34.69V468.64z
			 M610.69,416.76h9.95c9.95,0,16.79,5.93,16.79,16.69c0,10.76-6.84,16.69-16.79,16.69h-9.95V416.76z"/>
		<path class="st2" d="M737.47,468.64h23.92l4.72-12.27h26.74l4.73,12.27h24.53l-30.77-70.38h-23.32l-30.69,70.19l-14.65-21.53
			c8.45-4.32,13.27-11.96,13.27-22.12c0-16.29-12.47-26.54-32.07-26.54h-33.88v70.38h23.73v-17.7h6.44l11.96,17.7h25.13H737.47z
			 M779.49,421.59l6.84,17.69h-13.67L779.49,421.59z M702.38,433.05h-8.65v-16.49h8.65c6.53,0,9.65,3.12,9.65,8.24
			C712.04,429.94,708.92,433.05,702.38,433.05z"/>
		<polygon class="st2" points="881.44,450.24 849.67,450.24 849.67,398.26 825.94,398.26 825.94,468.64 881.44,468.64 		"/>
		<polygon class="st2" points="934.22,430.24 907.47,398.26 887.97,398.26 887.97,468.64 911.09,468.64 911.09,436.67 
			937.83,468.64 957.34,468.64 957.34,398.26 934.22,398.26 		"/>
		<polygon class="st2" points="1014.24,398.26 999.76,422.6 985.38,398.26 960.35,398.26 986.89,442.8 986.89,468.64 
			1010.62,468.64 1010.62,443.1 1037.16,398.26 		"/>
		<path class="st2" d="M288.03,486.29c1.15,0,2.06-0.9,2.06-2.06c0-1.11-0.9-2.01-2.06-2.01c-1.16,0-2.06,0.96-2.06,2.06
			S286.87,486.29,288.03,486.29z"/>
		<rect x="286.77" y="492.68" class="st2" width="2.51" height="26.23"/>
		<path class="st2" d="M332.55,492.47c-5.08,0-8.9,2.51-10.61,6.33c-1.41-4.17-4.87-6.33-9.6-6.33c-4.77,0-8.34,2.16-10.05,5.83
			v-5.63h-2.41v26.23h2.51v-13.97c0-6.23,3.67-10.2,9.6-10.2c5.13,0,8.19,3.12,8.19,9.05v15.13h2.51v-13.97
			c0-6.23,3.67-10.2,9.6-10.2c5.13,0,8.19,3.12,8.19,9.05v15.13h2.51v-15.33C343.01,496.25,338.89,492.47,332.55,492.47z"/>
		<path class="st2" d="M350.96,516.95c0,1.21,0.95,2.16,2.11,2.16c1.15,0,2.11-0.95,2.11-2.16c0-1.21-0.95-2.11-2.11-2.11
			C351.91,514.84,350.96,515.74,350.96,516.95z"/>
		<polygon class="st2" points="399.96,518.91 387.55,503.28 398.86,492.68 395.64,492.68 378.86,508 378.86,481.62 376.34,481.62 
			376.34,518.91 378.86,518.91 378.86,511.12 385.69,504.89 396.85,518.91 		"/>
		<path class="st2" d="M411.83,516.9c-3.87,0-7.44-1.46-9.45-3.17l-1.16,2.01c2.06,1.91,6.18,3.37,10.51,3.37
			c6.68,0,10.35-2.91,10.35-7.19c0-10-17.39-4.42-17.39-12.31c0-2.82,2.26-4.92,7.39-4.92c2.82,0,5.68,0.75,7.89,2.36l1.16-2.01
			c-2.06-1.56-5.68-2.56-9-2.56c-6.63,0-9.95,3.22-9.95,7.19c0,10.3,17.39,4.68,17.39,12.31
			C419.57,514.94,417.36,516.9,411.83,516.9z"/>
		<path class="st2" d="M426.71,516.95c0,1.21,0.95,2.16,2.11,2.16c1.16,0,2.11-0.95,2.11-2.16c0-1.21-0.96-2.11-2.11-2.11
			C427.67,514.84,426.71,515.74,426.71,516.95z"/>
		<path class="st2" d="M479.18,518.91h2.76l-16.18-35.18h-2.56l-16.18,35.18h2.76l4.47-9.9h20.4L479.18,518.91z M455.26,506.85
			l9.2-20.3l9.25,20.3H455.26z"/>
		<rect x="487.53" y="481.62" class="st2" width="2.51" height="37.29"/>
		<path class="st2" d="M508.54,483.58c1.56,0,3.02,0.5,4.07,1.46l1-1.91c-1.25-1.16-3.27-1.71-5.18-1.71
			c-4.67,0-7.28,2.86-7.28,7.24v4.02h-4.83v2.16h4.83v24.07h2.51v-24.07h8.34v-2.16h-8.39v-3.82
			C503.62,485.39,505.28,483.58,508.54,483.58z"/>
		<path class="st2" d="M523.68,505.24c0-6.48,3.47-10.35,9.3-10.35c0.2,0,0.4,0.05,0.6,0.05v-2.46c-4.92,0-8.39,2.11-10,5.93v-5.73
			h-2.41v26.23h2.51V505.24z"/>
		<path class="st2" d="M560.82,514.84l-1.46-1.66c-2.01,2.46-5.08,3.67-8.39,3.67c-6.28,0-10.86-4.22-11.11-10.45h22.57
			c0-0.25,0.05-0.5,0.05-0.7c0-7.79-5.33-13.22-12.51-13.22c-7.19,0-12.56,5.53-12.56,13.32c0,7.79,5.58,13.32,13.52,13.32
			C554.89,519.11,558.51,517.65,560.82,514.84z M549.96,494.69c5.58,0,9.7,4.07,10.05,9.75h-20.1
			C540.31,498.71,544.38,494.69,549.96,494.69z"/>
		<path class="st2" d="M591.08,498.76c-2.11-3.97-6.03-6.28-10.7-6.28c-7.39,0-12.97,5.43-12.97,13.32
			c0,7.84,5.58,13.32,12.97,13.32c4.72,0,8.69-2.31,10.75-6.38v6.18h2.46v-37.29h-2.51V498.76z M580.52,516.85
			c-6.03,0-10.55-4.47-10.55-11.05c0-6.58,4.52-11.06,10.55-11.06c6.03,0,10.55,4.47,10.55,11.06
			C591.08,512.38,586.56,516.85,580.52,516.85z"/>
		<path class="st2" d="M613.05,492.47c-4.07,0-7.89,1.41-10.5,3.72l1.26,1.81c2.16-1.96,5.43-3.32,9.04-3.32
			c5.13,0,7.79,2.61,7.79,7.49v2.11h-9c-7.29,0-9.8,3.37-9.8,7.34c0,4.47,3.57,7.49,9.45,7.49c4.57,0,7.79-1.86,9.45-4.87v4.67h2.41
			v-16.64C623.15,495.79,619.53,492.47,613.05,492.47z M620.64,511.17c-1.51,3.77-4.58,5.88-9,5.88c-4.62,0-7.29-2.11-7.29-5.53
			c0-3.01,1.91-5.28,7.34-5.28h8.95V511.17z"/>
		<polygon class="st2" points="673.31,499.91 649.79,499.91 649.79,483.73 647.23,483.73 647.23,518.91 649.79,518.91 
			649.79,502.18 673.31,502.18 673.31,518.91 675.88,518.91 675.88,483.73 673.31,483.73 		"/>
		<path class="st2" d="M697.59,492.47c-7.54,0-13.12,5.53-13.12,13.32c0,7.79,5.58,13.32,13.12,13.32s13.12-5.53,13.12-13.32
			C710.71,498,705.13,492.47,697.59,492.47z M697.59,516.85c-6.03,0-10.55-4.47-10.55-11.05c0-6.58,4.52-11.06,10.55-11.06
			s10.55,4.47,10.55,11.06C708.15,512.38,703.63,516.85,697.59,516.85z"/>
		<path class="st2" d="M726.4,483.58c1.56,0,3.02,0.5,4.07,1.46l1.01-1.91c-1.25-1.16-3.27-1.71-5.18-1.71
			c-4.67,0-7.29,2.86-7.29,7.24v4.02h-4.82v2.16h4.82v24.07h2.51v-24.07h8.34v-2.16h-8.39v-3.82
			C721.47,485.39,723.13,483.58,726.4,483.58z"/>
		<path class="st2" d="M735.5,488.66v4.02h-4.82v2.16h4.82v24.07h2.51v-24.07h8.34v-2.16h-8.39v-3.82c0-3.47,1.66-5.28,4.92-5.28
			c1.56,0,3.02,0.5,4.07,1.46l1.01-1.91c-1.26-1.16-3.27-1.71-5.18-1.71C738.11,481.42,735.5,484.28,735.5,488.66z"/>
		<path class="st2" d="M788.17,492.47c-5.07,0-8.89,2.51-10.6,6.33c-1.41-4.17-4.87-6.33-9.6-6.33c-4.78,0-8.34,2.16-10.05,5.83
			v-5.63h-2.41v26.23h2.51v-13.97c0-6.23,3.67-10.2,9.6-10.2c5.13,0,8.19,3.12,8.19,9.05v15.13h2.51v-13.97
			c0-6.23,3.67-10.2,9.6-10.2c5.13,0,8.19,3.12,8.19,9.05v15.13h2.51v-15.33C798.62,496.25,794.5,492.47,788.17,492.47z"/>
		<path class="st2" d="M817.83,492.47c-4.07,0-7.89,1.41-10.51,3.72l1.26,1.81c2.16-1.96,5.43-3.32,9.05-3.32
			c5.13,0,7.79,2.61,7.79,7.49v2.11h-9c-7.29,0-9.8,3.37-9.8,7.34c0,4.47,3.57,7.49,9.45,7.49c4.57,0,7.79-1.86,9.45-4.87v4.67h2.41
			v-16.64C827.93,495.79,824.32,492.47,817.83,492.47z M825.42,511.17c-1.51,3.77-4.57,5.88-9,5.88c-4.62,0-7.29-2.11-7.29-5.53
			c0-3.01,1.91-5.28,7.34-5.28h8.95V511.17z"/>
		<path class="st2" d="M851.11,492.47c-4.98,0-8.64,2.21-10.4,5.88v-5.68h-2.41v26.23h2.51v-13.97c0-6.23,3.77-10.2,9.95-10.2
			c5.33,0,8.49,3.12,8.49,9.05v15.13h2.51v-15.33C861.76,496.25,857.49,492.47,851.11,492.47z"/>
		<path class="st2" d="M880.97,492.47c-4.07,0-7.89,1.41-10.5,3.72l1.25,1.81c2.16-1.96,5.43-3.32,9.05-3.32
			c5.12,0,7.79,2.61,7.79,7.49v2.11h-9c-7.29,0-9.8,3.37-9.8,7.34c0,4.47,3.57,7.49,9.45,7.49c4.58,0,7.79-1.86,9.45-4.87v4.67h2.41
			v-16.64C891.07,495.79,887.45,492.47,880.97,492.47z M888.56,511.17c-1.51,3.77-4.57,5.88-9,5.88c-4.62,0-7.29-2.11-7.29-5.53
			c0-3.01,1.91-5.28,7.34-5.28h8.94V511.17z"/>
		<polygon class="st2" points="317.12,566.31 308.23,542.94 306.07,542.94 297.12,566.36 288.38,542.94 285.96,542.94 
			295.92,569.18 298.23,569.18 307.12,546.41 315.97,569.18 318.33,569.18 328.28,542.94 325.97,542.94 		"/>
		<path class="st2" d="M347.79,543.04c0-3.87,3.06-7.04,9.9-7.04c3.17,0,6.73,0.95,9.65,2.96l0.95-2.06
			c-2.71-1.96-6.74-3.17-10.6-3.17c-8.65,0-12.46,4.37-12.46,9.35c0,12.97,21.96,6.63,21.96,17.19c0,3.82-3.11,6.88-10.15,6.88
			c-4.72,0-9.2-1.91-11.61-4.42l-1.15,1.91c2.56,2.82,7.59,4.78,12.81,4.78c8.69,0,12.67-4.32,12.67-9.3
			C369.75,547.37,347.79,553.6,347.79,543.04z"/>
		<path class="st2" d="M378.91,532.49c-1.16,0-2.06,0.96-2.06,2.06s0.91,2.01,2.06,2.01c1.15,0,2.06-0.9,2.06-2.06
			C380.97,533.4,380.06,532.49,378.91,532.49z"/>
		<rect x="377.65" y="542.94" class="st2" width="2.51" height="26.23"/>
		<path class="st2" d="M400.47,542.74c-7.19,0-12.56,5.53-12.56,13.32s5.58,13.32,13.52,13.32c3.97,0,7.59-1.46,9.9-4.27l-1.46-1.66
			c-2.01,2.46-5.07,3.67-8.39,3.67c-6.28,0-10.85-4.22-11.11-10.45h22.57c0-0.25,0.05-0.5,0.05-0.7
			C412.98,548.17,407.66,542.74,400.47,542.74z M390.42,554.7c0.4-5.73,4.47-9.75,10.05-9.75c5.58,0,9.7,4.07,10.05,9.75H390.42z"/>
		<path class="st2" d="M441.59,549.03c-2.11-3.97-6.03-6.28-10.71-6.28c-7.39,0-12.97,5.43-12.97,13.32
			c0,7.84,5.58,13.32,12.97,13.32c4.72,0,8.69-2.31,10.76-6.38v6.18h2.46v-37.29h-2.51V549.03z M431.03,567.12
			c-6.03,0-10.55-4.47-10.55-11.05S425,545,431.03,545s10.55,4.47,10.55,11.06S437.06,567.12,431.03,567.12z"/>
		<rect x="454.71" y="531.89" class="st2" width="2.51" height="37.29"/>
		<path class="st2" d="M478.23,545c3.27,0,6.18,1.26,8.09,3.92l1.86-1.36c-2.16-3.22-5.78-4.82-9.95-4.82
			c-7.69,0-13.27,5.48-13.27,13.32c0,7.79,5.58,13.32,13.27,13.32c4.17,0,7.79-1.66,9.95-4.82l-1.86-1.36
			c-1.91,2.66-4.83,3.92-8.09,3.92c-6.18,0-10.7-4.42-10.7-11.05C467.53,549.43,472.05,545,478.23,545z"/>
		<path class="st2" d="M504.57,542.74c-4.07,0-7.89,1.41-10.5,3.72l1.26,1.81c2.16-1.96,5.43-3.32,9.04-3.32
			c5.13,0,7.79,2.61,7.79,7.49v2.11h-9c-7.29,0-9.8,3.37-9.8,7.34c0,4.47,3.57,7.49,9.45,7.49c4.57,0,7.79-1.86,9.45-4.87v4.67h2.41
			v-16.64C514.67,546.06,511.05,542.74,504.57,542.74z M512.16,561.44c-1.51,3.77-4.58,5.88-9,5.88c-4.62,0-7.29-2.11-7.29-5.53
			c0-3.01,1.91-5.28,7.34-5.28h8.95V561.44z"/>
		<path class="st2" d="M535.48,545c3.27,0,6.18,1.26,8.09,3.92l1.86-1.36c-2.16-3.22-5.78-4.82-9.95-4.82
			c-7.69,0-13.27,5.48-13.27,13.32c0,7.79,5.58,13.32,13.27,13.32c4.17,0,7.79-1.66,9.95-4.82l-1.86-1.36
			c-1.91,2.66-4.82,3.92-8.09,3.92c-6.18,0-10.7-4.42-10.7-11.05C524.78,549.43,529.3,545,535.48,545z"/>
		<path class="st2" d="M565.34,542.74c-4.88,0-8.49,2.11-10.3,5.68v-16.54h-2.51v37.29h2.51v-13.97c0-6.23,3.77-10.2,9.95-10.2
			c5.33,0,8.49,3.12,8.49,9.05v15.13H576v-15.33C576,546.51,571.73,542.74,565.34,542.74z"/>
	</g>
</g>
</svg>
