<?xml version="1.0" encoding="utf-8"?>
<!-- Generator: Adobe Illustrator 23.0.5, SVG Export Plug-In . SVG Version: 6.00 Build 0)  -->
<svg version="1.1" xmlns="http://www.w3.org/2000/svg" xmlns:xlink="http://www.w3.org/1999/xlink" x="0px" y="0px"
	 viewBox="0 0 998.82 1254.03" style="enable-background:new 0 0 998.82 1254.03;" xml:space="preserve">
<style type="text/css">
	.st0{display:none;}
	.st1{display:inline;fill:none;stroke:#E52421;stroke-width:10;stroke-miterlimit:10;}
	.st2{fill:#FFFFFF;}
</style>
<g id="pole_ochronne" class="st0">
	<rect class="st1" width="998.82" height="1254.03"/>
</g>
<g id="chk">
	<g>
		<polygon class="st2" points="331.96,622.59 327.58,622.59 327.58,640.3 331.96,640.3 332.01,640.3 336.38,640.3 336.38,622.59 
			332.01,622.59 		"/>
		<rect x="346.72" y="622.59" class="st2" width="4.43" height="4.43"/>
		<rect x="321.65" y="556.15" class="st2" width="20.62" height="39.86"/>
		<rect x="317.19" y="547.29" class="st2" width="4.43" height="4.43"/>
		<rect x="321.65" y="600.44" class="st2" width="20.62" height="13.29"/>
		<rect x="342.29" y="547.29" class="st2" width="4.43" height="4.43"/>
		<rect x="326.05" y="494.14" class="st2" width="11.81" height="22.15"/>
		<rect x="345.24" y="494.14" class="st2" width="7.38" height="22.15"/>
		<rect x="311.31" y="494.14" class="st2" width="7.38" height="22.15"/>
		<polygon class="st2" points="337.86,525.14 334.17,525.14 334.17,520.71 329.74,520.71 329.74,525.14 326.05,525.14 326.05,534 
			321.62,534 321.62,538.43 326.05,538.43 337.86,538.43 342.29,538.43 342.29,534 337.86,534 		"/>
		<rect x="346.72" y="631.44" class="st2" width="4.43" height="8.86"/>
		<rect x="312.77" y="631.44" class="st2" width="4.43" height="8.86"/>
		<polygon class="st2" points="357.05,542.86 346.72,551.72 346.72,613.73 357.05,613.73 		"/>
		<polygon class="st2" points="306.86,613.73 317.19,613.73 317.19,551.72 306.86,542.86 		"/>
		<polygon class="st2" points="351.15,485.28 355.58,485.28 355.58,476.42 351.15,476.42 351.15,440.99 346.72,440.99 
			346.72,480.85 351.15,480.85 		"/>
		<polygon class="st2" points="331.96,396.7 336.38,396.7 336.38,352.4 331.96,352.4 331.96,352.4 327.53,352.4 327.53,396.7 
			331.96,396.7 		"/>
		<rect x="329.74" y="308.11" class="st2" width="4.43" height="44.29"/>
		<polygon class="st2" points="331.17,308.11 332.64,308.11 332.64,292.33 336.38,292.33 336.38,290.85 332.64,290.85 
			332.64,285.96 331.17,285.96 331.17,290.85 327.53,290.85 327.53,292.33 331.17,292.33 		"/>
		<path class="st2" d="M317.19,480.85h29.53v-4.43h-29.53v-4.43h29.53v-22.15h-29.53v-4.43h29.53v-4.43h-5.91V396.7h0v0H323.1v4.43
			h0v39.86h4.43v0h-10.34v0h-4.43v39.86L317.19,480.85L317.19,480.85z M336.38,401.13L336.38,401.13l0,39.86h0V401.13z"/>
		<rect x="308.33" y="476.42" class="st2" width="4.43" height="8.86"/>
		<rect x="306.86" y="777.61" class="st2" width="4.43" height="8.86"/>
		<rect x="316.45" y="777.61" class="st2" width="4.43" height="8.86"/>
		<rect x="325.31" y="777.61" class="st2" width="4.43" height="8.86"/>
		<rect x="334.18" y="777.61" class="st2" width="4.43" height="8.86"/>
		<rect x="343.03" y="777.61" class="st2" width="4.43" height="8.86"/>
		<rect x="352.63" y="777.61" class="st2" width="4.43" height="8.86"/>
		<rect x="306.86" y="742.17" class="st2" width="20.66" height="4.43"/>
		<rect x="336.4" y="742.17" class="st2" width="20.66" height="4.43"/>
		<rect x="306.86" y="671.31" class="st2" width="20.66" height="4.43"/>
		<rect x="336.4" y="671.31" class="st2" width="20.66" height="4.43"/>
		<path class="st2" d="M302.43,529.57v-39.86h59.06v-4.43h-59.06H298v39.86h-10.34v4.43h0v84.16v4.43h0v39.86v4.43h4.43H298h4.43h0
			v-39.86h10.34v-4.43h-10.34v-4.43V534h19.19v-4.43H302.43z M298,658.02h-5.91v-39.86h0H298V658.02z M298,534v79.73h-5.91v-84.16
			H298V534z"/>
		<rect x="321.62" y="542.86" class="st2" width="20.67" height="4.43"/>
		<rect x="336.38" y="618.16" class="st2" width="10.34" height="4.43"/>
		<rect x="312.77" y="622.59" class="st2" width="4.43" height="4.43"/>
		<rect x="317.2" y="618.16" class="st2" width="10.34" height="4.43"/>
		<rect x="306.86" y="644.73" class="st2" width="10.34" height="13.29"/>
		<rect x="346.72" y="644.73" class="st2" width="10.34" height="13.29"/>
		<rect x="306.86" y="888.11" class="st2" width="4.43" height="9.09"/>
		<rect x="306.86" y="865.84" class="st2" width="4.43" height="9.09"/>
		<rect x="352.63" y="887.6" class="st2" width="4.43" height="9.09"/>
		<rect x="352.63" y="865.96" class="st2" width="4.43" height="9.09"/>
		<rect x="344.51" y="865.96" class="st2" width="4.43" height="9.09"/>
		<rect x="314.98" y="865.96" class="st2" width="4.43" height="9.09"/>
		<rect x="306.87" y="759.89" class="st2" width="4.43" height="4.43"/>
		<rect x="316.46" y="759.89" class="st2" width="4.43" height="4.43"/>
		<rect x="325.32" y="759.89" class="st2" width="4.43" height="4.43"/>
		<rect x="334.19" y="759.89" class="st2" width="4.43" height="4.43"/>
		<rect x="343.04" y="759.89" class="st2" width="4.43" height="4.43"/>
		<rect x="352.64" y="759.89" class="st2" width="4.43" height="4.43"/>
		<polygon class="st2" points="317.19,914.91 317.19,919.34 346.72,919.34 346.72,914.91 335.65,906.06 328.26,906.06 		"/>
		<path class="st2" d="M357.05,830.7v-0.06v-7.66c-1.06-13.1-12.16-23.27-25.23-23.2c-12.98,0.07-23.91,10.2-24.96,23.2
			c0,2.55,0,5.11,0,7.66v0.06v30.83h50.2V830.7z"/>
		<rect x="327.53" y="865.96" class="st2" width="8.86" height="9.09"/>
		<rect x="336.39" y="680.17" class="st2" width="20.66" height="57.58"/>
		<rect x="306.86" y="680.17" class="st2" width="20.66" height="57.58"/>
		
			<ellipse transform="matrix(0.7071 -0.7071 0.7071 0.7071 -363.3647 425.5114)" class="st2" cx="331.96" cy="651.38" rx="6.64" ry="6.64"/>
		<polygon class="st2" points="494.34,538.43 506.16,538.43 510.59,538.43 510.59,534 506.16,534 506.16,525.14 502.46,525.14 
			502.46,520.71 498.04,520.71 498.04,525.14 494.34,525.14 494.34,534 489.92,534 489.92,538.43 		"/>
		<rect x="510.59" y="547.29" class="st2" width="4.43" height="4.43"/>
		<rect x="494.34" y="494.14" class="st2" width="11.81" height="22.15"/>
		<rect x="513.54" y="494.14" class="st2" width="7.38" height="22.15"/>
		<rect x="479.6" y="494.14" class="st2" width="7.38" height="22.15"/>
		<polygon class="st2" points="519.44,485.28 523.87,485.28 523.87,476.42 519.45,476.42 519.45,440.99 515.02,440.99 
			515.02,480.85 519.44,480.85 		"/>
		<polygon class="st2" points="500.25,396.7 504.68,396.7 504.68,352.4 500.25,352.4 500.25,352.4 495.82,352.4 495.82,396.7 
			500.25,396.7 		"/>
		<rect x="498.04" y="308.11" class="st2" width="4.43" height="44.29"/>
		<polygon class="st2" points="499.46,308.11 500.94,308.11 500.94,292.33 504.68,292.33 504.68,290.85 500.94,290.85 
			500.94,285.96 499.46,285.96 499.46,290.85 495.82,290.85 495.82,292.33 499.46,292.33 		"/>
		<path class="st2" d="M485.49,480.85h29.53v-4.43h-29.53v-4.43h29.53v-22.15h-29.53v-4.43h29.53v-4.43h-5.91V396.7h0v0h-17.72v4.43
			h0v39.86h4.43v0h-10.34v0h-4.43v39.86L485.49,480.85L485.49,480.85z M504.68,401.13L504.68,401.13l0,39.86h0V401.13z"/>
		<rect x="476.63" y="476.42" class="st2" width="4.43" height="8.86"/>
		<rect x="489.92" y="542.86" class="st2" width="20.67" height="4.43"/>
		<rect x="391.02" y="742.17" class="st2" width="10.26" height="4.43"/>
		<rect x="430.87" y="742.17" class="st2" width="10.26" height="4.43"/>
		<rect x="405.78" y="742.17" class="st2" width="20.67" height="4.43"/>
		<rect x="391" y="759.89" class="st2" width="4.43" height="4.43"/>
		<rect x="400.6" y="759.89" class="st2" width="4.43" height="4.43"/>
		<rect x="409.46" y="759.89" class="st2" width="4.43" height="4.43"/>
		<rect x="418.32" y="759.89" class="st2" width="4.43" height="4.43"/>
		<rect x="427.17" y="759.89" class="st2" width="4.43" height="4.43"/>
		<rect x="436.77" y="759.89" class="st2" width="4.43" height="4.43"/>
		<rect x="391.01" y="888.1" class="st2" width="4.43" height="9.09"/>
		<rect x="391.01" y="865.84" class="st2" width="4.43" height="9.09"/>
		<rect x="436.78" y="887.6" class="st2" width="4.43" height="9.09"/>
		<rect x="436.78" y="865.96" class="st2" width="4.43" height="9.09"/>
		<rect x="428.66" y="865.96" class="st2" width="4.43" height="9.09"/>
		<rect x="411.68" y="865.96" class="st2" width="8.86" height="9.09"/>
		<rect x="399.13" y="865.96" class="st2" width="4.43" height="9.09"/>
		<polygon class="st2" points="401.35,914.91 401.35,919.34 430.88,919.34 430.88,914.91 419.8,906.05 412.42,906.05 		"/>
		<path class="st2" d="M391.01,861.53h50.2v-52.95h0v-7.72c-1.06-13.1-12.16-23.27-25.23-23.2c-12.98,0.07-23.91,10.2-24.96,23.2
			c0,2.57,0,5.15,0,7.72h0V861.53z"/>
		<rect x="430.85" y="671.31" class="st2" width="10.33" height="66.44"/>
		<rect x="405.76" y="671.31" class="st2" width="20.66" height="66.44"/>
		<rect x="390.99" y="671.31" class="st2" width="10.33" height="66.44"/>
		<rect x="427.92" y="635.87" class="st2" width="4.43" height="4.43"/>
		<path class="st2" d="M628.7,600.44h-84.16l-0.01,0v-70.87h0h0v-4.43h-10.33v-39.86h-4.43v39.86h0v4.43h-19.19V534h19.19v53.89
			l-4.43-3.77v-41.26l-10.33,8.86v23.63l-4.46-3.79v-15.41h-18.13l-5.21-4.43h2.69v-4.43h-4.43v2.95l-14.76-12.55V534h19.19v-4.43
			h-19.19v-39.86h59.06v-4.43h-59.06h-4.43v39.86h-10.34v4.43h0l0,15.04v69.12v4.43h0v37.36l-19.18-10.79h-4.43v-4.43h-4.43h-4.43
			v-13.29h-6.69v-15.78h3.74v-1.48h-3.74v-4.89h-1.48v4.89h-3.64v1.48h3.64v15.78h-6.59v13.29h-4.43v-4.43h-4.43v4.43v0v4.43h-4.43
			l-19.2,10.8v-37.37h0v-4.43v-84.16h0v-4.43h-10.33v-39.86h-4.43v39.86h0v4.43h-19.19V534h19.19v79.73v4.43h0h-10.33v4.43h10.33
			v35.43v4.43h4.43h5.91h0v0h0v84.15h-5.89h-0.01v-79.73v-4.43h-4.43h-59.06H298v4.43v79.73h-5.89v0h-0.01v-84.16h-4.43v88.58h0.01
			v13.29h-0.01v4.43h0v22.15h0v0v84.16v4.43v35.43v4.43v44.29v4.43h4.43H298h4.43h14.76h29.53h14.76h4.43h5.91h4.43v0h0h5.91h4.43
			h14.76h29.53h14.76h4.43h5.89v0h4.43h5.91h4.43h14.76h29.53h14.76h4.43h5.91h0h4.43h0l168.31,0l0.01-283.46
			C712.86,638.12,675.18,600.44,628.7,600.44z M371.82,658.02h-5.91v-39.86h0h5.91V658.02z M371.82,613.73h-5.91V534v-4.43h5.91
			V613.73z M302.43,666.88h59.06v84.16h-59.05v-4.43h-0.01V666.88z M292.09,786.47v-17.72H298v4.43v13.29H292.09z M298,963.64h-5.91
			v-44.29H298V963.64z M298,883.91v31h-5.91v-35.43H298V883.91z M298,795.33v79.73h-5.91V790.9H298V795.33z M298.01,764.32h-5.91
			v-13.29H298v4.43h0.01V764.32z M361.48,963.64h-14.76c0-11.81,0-23.62,0-35.43c-1.97-1.3-7.28-4.43-14.76-4.43
			c-7.48,0-12.79,3.13-14.77,4.43v35.43h-14.76v-44.29l0.01-0.01h0.05v-0.05l29.47-29.47l29.53,29.53V963.64z M302.43,913.08v-29.18
			h23.62l2.78,2.78L302.43,913.08z M361.48,913.08l-26.4-26.4l2.78-2.78h23.62V913.08z M361.48,875.05v4.43H342.3h-6.26h-8.15h-6.26
			h-19.19v-4.43v-79.73h59.06V875.05z M361.48,790.9h-59.06v-4.43h0v-13.29h59.06L361.48,790.9L361.48,790.9L361.48,790.9z
			 M361.49,764.32h-0.01v4.43h0v0h-59.06v0h0.01v-13.29h59.06V764.32z M365.91,786.47v-13.29v-4.43h5.91v17.72H365.91z
			 M371.82,963.64h-5.91v-44.29h5.91V963.64z M371.82,914.91h-5.91v-31v-4.43h5.91V914.91z M371.82,875.05h-5.91v-79.73v-4.43h5.91
			V875.05z M371.82,764.32L371.82,764.32L371.82,764.32l-5.9,0v-13.29h5.89v0h0v0.01h0V764.32z M450.06,662.45h5.9v0h0v0h0v84.15
			h-5.9V662.45z M441.2,658.02h1.19l0,0L441.2,658.02L441.2,658.02z M399.88,662.45h4.43v0h4.43v0h14.75v0h4.43h4.43v0h4.43v0h4.43
			v0h4.42v0L399.88,662.45L399.88,662.45z M391.02,662.45h4.43v0L391.02,662.45L391.02,662.45z M386.57,666.88h59.06v79.73h0h-0.01
			v4.43h0.01v0h-59.04v-4.42h-0.01V666.88z M376.25,746.6v-84.15h5.88v4.43h0.02v79.73h0v0.01h-5.88v-0.01L376.25,746.6
			L376.25,746.6L376.25,746.6z M382.14,755.46v8.86h-5.88v-13.28h5.87v4.42H382.14z M382.15,963.63h-5.91v-44.29h5.91V963.63z
			 M382.15,883.91v31h-5.91v-35.43h0h5.91V883.91z M382.15,875.05h-5.91v-106.3h0.01v0h5.89v4.43h0V875.05z M386.57,764.32v-8.86
			h59.06v13.29h0.01v0h-59.06h0v-4.43H386.57z M410.2,883.91l2.78,2.78l-26.4,26.4v-29.18H410.2z M445.64,963.63h-14.76
			c0-11.81,0-23.62,0-35.43c-1.97-1.3-7.28-4.43-14.76-4.43c-7.48,0-12.79,3.13-14.77,4.43v35.43h-14.76v-44.29l0.01-0.01h0.05
			v-0.05l29.47-29.47l29.53,29.53V963.63z M445.64,913.08l-26.4-26.4l2.78-2.78h23.62V913.08z M445.64,875.05L445.64,875.05l0,4.43
			h-19.19h-6.26h-8.15h-6.26h-19.19v-106.3h59.06V875.05z M455.96,919.34v44.29h-5.89v-44.29L455.96,919.34L455.96,919.34z
			 M455.96,879.48v35.43h-5.89v-31v-4.43h0v0L455.96,879.48L455.96,879.48z M455.96,768.75L455.96,768.75l0,22.15h0v0v84.15h-5.89
			v-106.3h0v0L455.96,768.75L455.96,768.75z M450.06,764.32v-13.29h0v0h5.9v0h0l0,13.29H450.06z M466.29,533.93l-5.12-4.36h5.12
			V533.93z M540.11,596.67l-5.91-5.02V534v-4.43h5.91V596.67z"/>
	</g>
</g>
</svg>
